<svg width="24" height="24" viewBox="0 0 24 24" fill="none" xmlns="http://www.w3.org/2000/svg">
<path d="M19.9712 5.45872C19.513 4.99626 18.9691 4.62941 18.3704 4.37912C17.7717 4.12883 17.1299 4 16.4819 4C15.8338 4 15.1921 4.12883 14.5934 4.37912C13.9947 4.62941 13.4507 4.99626 12.9926 5.45872L12.0418 6.41803L11.0909 5.45872C10.1655 4.52503 8.91037 4.00048 7.60162 4.00048C6.29288 4.00048 5.03774 4.52503 4.11231 5.45872C3.18689 6.39241 2.66699 7.65877 2.66699 8.97921C2.66699 10.2997 3.18689 11.566 4.11231 12.4997L5.06313 13.459L12.0418 20.5L19.0204 13.459L19.9712 12.4997C20.4295 12.0375 20.7932 11.4886 21.0412 10.8846C21.2893 10.2805 21.417 9.63307 21.417 8.97921C21.417 8.32535 21.2893 7.6779 21.0412 7.07384C20.7932 6.46978 20.4295 5.92096 19.9712 5.45872V5.45872Z" stroke="white" stroke-linecap="round" stroke-linejoin="round"/>
</svg>
