<svg width="24" height="24" viewBox="0 0 24 24" fill="none" xmlns="http://www.w3.org/2000/svg">
<path d="M18 8.6665C18 7.0752 17.3679 5.54908 16.2426 4.42386C15.1174 3.29864 13.5913 2.6665 12 2.6665C10.4087 2.6665 8.88258 3.29864 7.75736 4.42386C6.63214 5.54908 6 7.0752 6 8.6665C6 15.6665 3 17.6665 3 17.6665H21C21 17.6665 18 15.6665 18 8.6665Z" stroke="#090909" stroke-linecap="round" stroke-linejoin="round"/>
<path d="M14.6663 18.3335C14.3953 18.9418 14.0064 19.4467 13.5384 19.7977C13.0704 20.1487 12.5398 20.3335 11.9997 20.3335C11.4596 20.3335 10.929 20.1487 10.461 19.7977C9.99298 19.4467 9.60401 18.9418 9.33301 18.3335" stroke="#090909" stroke-linecap="round" stroke-linejoin="round"/>
</svg>
