<svg width="10" height="11" viewBox="0 0 10 11" fill="none" xmlns="http://www.w3.org/2000/svg">
<path fill-rule="evenodd" clip-rule="evenodd" d="M7.625 1.125C7.625 0.917893 7.45711 0.75 7.25 0.75C7.04289 0.75 6.875 0.917893 6.875 1.125V1.5H3.125V1.125C3.125 0.917893 2.95711 0.75 2.75 0.75C2.54289 0.75 2.375 0.917893 2.375 1.125V1.5H1.25C0.835786 1.5 0.5 1.83579 0.5 2.25V4.125V9.75C0.5 10.1642 0.835786 10.5 1.25 10.5H8.75C9.16421 10.5 9.5 10.1642 9.5 9.75V4.125V2.25C9.5 1.83579 9.16421 1.5 8.75 1.5H7.625V1.125ZM8.75 3.75V2.25H7.625V2.625C7.625 2.83211 7.45711 3 7.25 3C7.04289 3 6.875 2.83211 6.875 2.625V2.25H3.125V2.625C3.125 2.83211 2.95711 3 2.75 3C2.54289 3 2.375 2.83211 2.375 2.625V2.25H1.25V3.75H8.75ZM1.25 4.5H8.75V9.75H1.25V4.5Z" fill="white"/>
</svg>
