<svg width="18" height="18" viewBox="0 0 18 18" fill="none" xmlns="http://www.w3.org/2000/svg">
<rect x="0.5" y="0.5" width="17" height="17" rx="1.5" fill="white" stroke="#D4D4D8"/>
<path d="M6.95577 13.1414C7.02475 13.2377 7.1157 13.3162 7.22106 13.3703C7.32643 13.4244 7.44317 13.4526 7.56163 13.4526C7.68008 13.4526 7.79683 13.4244 7.90219 13.3703C8.00755 13.3162 8.0985 13.2377 8.16748 13.1414L13.1034 6.29766C13.1925 6.17344 13.1034 6 12.9511 6H11.8519C11.6128 6 11.3855 6.11484 11.2448 6.31172L7.5628 11.4211L5.89405 9.10547C5.75342 8.91094 5.52842 8.79375 5.28702 8.79375H4.1878C4.03545 8.79375 3.94639 8.96719 4.03545 9.09141L6.95577 13.1414Z" fill="#7D39FF"/>
</svg>
