<svg width="36" height="36" viewBox="0 0 36 36" fill="none" xmlns="http://www.w3.org/2000/svg">
<path d="M29.9563 8.18808C29.2691 7.49439 28.4531 6.94411 27.5551 6.56868C26.657 6.19324 25.6944 6 24.7223 6C23.7502 6 22.7876 6.19324 21.8896 6.56868C20.9915 6.94411 20.1756 7.49439 19.4884 8.18808L18.0621 9.62705L16.6359 8.18808C15.2478 6.78754 13.3651 6.00073 11.4019 6.00073C9.43883 6.00073 7.55611 6.78754 6.16798 8.18808C4.77985 9.58862 4 11.4882 4 13.4688C4 15.4495 4.77985 17.349 6.16798 18.7496L7.5942 20.1885L18.0621 30.75L28.5301 20.1885L29.9563 18.7496C30.6438 18.0562 31.1892 17.233 31.5614 16.3269C31.9335 15.4208 32.125 14.4496 32.125 13.4688C32.125 12.488 31.9335 11.5169 31.5614 10.6108C31.1892 9.70468 30.6438 8.88144 29.9563 8.18808Z" fill="#F44848" stroke="#F44848" stroke-linecap="round" stroke-linejoin="round"/>
</svg>
