<svg width="18" height="16" viewBox="0 0 18 16" fill="none" xmlns="http://www.w3.org/2000/svg">
<path d="M15.6428 2.54891C15.261 2.16353 14.8077 1.85782 14.3088 1.64924C13.8099 1.44067 13.2751 1.33331 12.7351 1.33331C12.195 1.33331 11.6602 1.44067 11.1613 1.64924C10.6624 1.85782 10.2091 2.16353 9.8273 2.54891L9.03496 3.34834L8.24261 2.54891C7.47142 1.77084 6.42547 1.33372 5.33485 1.33372C4.24423 1.33372 3.19828 1.77084 2.42709 2.54891C1.6559 3.32699 1.22266 4.38229 1.22266 5.48266C1.22266 6.58302 1.6559 7.63832 2.42709 8.4164L3.21944 9.21583L9.03496 15.0833L14.8505 9.21583L15.6428 8.4164C16.0248 8.0312 16.3278 7.57385 16.5345 7.07046C16.7412 6.56708 16.8477 6.02754 16.8477 5.48266C16.8477 4.93777 16.7412 4.39823 16.5345 3.89485C16.3278 3.39147 16.0248 2.93411 15.6428 2.54891V2.54891Z" stroke="#C4C4C4" stroke-linecap="round" stroke-linejoin="round"/>
</svg>
