<svg width="20" height="20" viewBox="0 0 20 20" fill="none" xmlns="http://www.w3.org/2000/svg">
<path d="M15.8333 17.5H4.16667C3.72464 17.5 3.30072 17.3244 2.98816 17.0118C2.67559 16.6993 2.5 16.2754 2.5 15.8333V4.16667C2.5 3.72464 2.67559 3.30072 2.98816 2.98816C3.30072 2.67559 3.72464 2.5 4.16667 2.5H15.8333C16.2754 2.5 16.6993 2.67559 17.0118 2.98816C17.3244 3.30072 17.5 3.72464 17.5 4.16667V15.8333C17.5 16.2754 17.3244 16.6993 17.0118 17.0118C16.6993 17.3244 16.2754 17.5 15.8333 17.5ZM4.16667 4.16667V15.8333H15.8333V4.16667H4.16667ZM15 14.1667H5L7.5 10.8333L8.33333 11.6667L10.8333 8.33333L15 14.1667ZM7.08333 9.16667C6.75181 9.16667 6.43387 9.03497 6.19945 8.80055C5.96503 8.56613 5.83333 8.24819 5.83333 7.91667C5.83333 7.58515 5.96503 7.2672 6.19945 7.03278C6.43387 6.79836 6.75181 6.66667 7.08333 6.66667C7.41485 6.66667 7.7328 6.79836 7.96722 7.03278C8.20164 7.2672 8.33333 7.58515 8.33333 7.91667C8.33333 8.24819 8.20164 8.56613 7.96722 8.80055C7.7328 9.03497 7.41485 9.16667 7.08333 9.16667Z" fill="#25282B"/>
</svg>
