<svg width="16" height="16" viewBox="0 0 16 16" fill="none" xmlns="http://www.w3.org/2000/svg">
<path d="M13.5 12.9994H7.20713L12.3533 7.85323L12.3536 7.85296L12.3539 7.85265L13.9999 6.20657C14.0928 6.11372 14.1665 6.00348 14.2168 5.88215C14.267 5.76083 14.2929 5.63078 14.2929 5.49946C14.2929 5.36813 14.267 5.23809 14.2168 5.11675C14.1665 4.99542 14.0929 4.88518 14 4.79232L11.2071 1.99935C11.0194 1.81214 10.7651 1.70702 10.5 1.70703C10.2348 1.70704 9.98055 1.81219 9.79285 1.99941L2.29285 9.49944C2.19574 9.59654 2.11974 9.71264 2.0696 9.84048C2.06445 9.85296 2.06012 9.86565 2.05603 9.87844C2.01915 9.9839 2.00021 10.0948 2 10.2065V12.9994C2.0003 13.2645 2.10576 13.5187 2.29323 13.7062C2.4807 13.8937 2.73488 13.9991 3 13.9994H13.5C13.6326 13.9994 13.7598 13.9467 13.8536 13.853C13.9473 13.7592 14 13.632 14 13.4994C14 13.3668 13.9473 13.2396 13.8536 13.1459C13.7598 13.0521 13.6326 12.9994 13.5 12.9994ZM10.5 2.70651L13.2928 5.49941L12 6.79226L9.20712 3.99941L10.5 2.70651Z" fill="white"/>
</svg>
