<svg width="52" height="52" viewBox="0 0 52 52" fill="none" xmlns="http://www.w3.org/2000/svg">
<circle cx="26" cy="26" r="26" fill="#090909"/>
<path d="M20.2321 26.696C20.2321 28.296 19.4161 29.368 17.8321 29.368C16.2321 29.368 15.4321 28.296 15.4321 26.696C15.4321 23 15.4321 19.8 15.4321 19.8H13.5121V26.936C13.5121 29.4 15.1921 31.192 17.8321 31.192C20.4721 31.192 22.1521 29.4 22.1521 26.936V19.8H20.2321C20.2321 19.8 20.2321 23 20.2321 26.696ZM24.5278 31H26.4478V26.776H27.3278L29.9838 31H32.2238L29.4238 26.648C31.0238 26.248 31.9198 24.968 31.9198 23.288C31.9198 21.24 30.4318 19.8 28.2078 19.8H24.5278V31ZM27.9678 24.952H26.4478V21.624H27.9678C29.1998 21.624 29.9678 22.184 29.9678 23.288C29.9678 24.392 29.1998 24.952 27.9678 24.952ZM33.8559 31H40.5439V29.176H35.7759V19.8H33.8559V31Z" fill="white"/>
</svg>
