<svg width="52" height="52" viewBox="0 0 52 52" fill="none" xmlns="http://www.w3.org/2000/svg">
<circle cx="26" cy="26" r="26" fill="#FAE100"/>
<g clip-path="url(#clip0_1501_1057)">
<path d="M26 13.9976C18.8201 13.9976 12.9902 18.62 12.9902 24.3252C12.9902 28.0374 15.4449 31.2909 19.1588 33.1112C18.8864 34.1299 18.177 36.8111 18.0322 37.3784C17.8554 38.0888 18.2899 38.079 18.5746 37.889L23.5797 34.4703C24.3787 34.5886 25.1851 34.648 25.9927 34.6479C33.1726 34.6479 39.0025 30.0255 39.0025 24.3227C39.0025 18.62 33.18 13.9976 26 13.9976ZM19.6522 26.9891C19.6522 27.6156 18.2629 27.6082 18.2604 26.9891C18.2604 26.1283 18.2604 22.4358 18.2604 22.4358H16.9226C16.1371 22.4358 16.1347 21.1482 16.9226 21.1458C16.9226 21.1458 20.0548 21.1729 20.9925 21.1729C21.8246 21.1729 21.8222 22.4876 20.9925 22.4876C20.1113 22.4876 19.6621 22.4876 19.6621 22.4876L19.6522 26.9891ZM24.7653 27.147C24.4413 26.2837 24.5199 26.2467 24.5199 26.2467H22.0652L21.7976 27.1865C21.5104 27.8475 20.2806 27.3073 20.5703 26.6487C20.9655 25.7361 22.156 22.2952 22.4849 21.5675C22.5572 21.4338 22.6668 21.3242 22.8003 21.2523C22.9338 21.1805 23.0853 21.1494 23.2361 21.163C23.6141 21.163 24.0069 21.3308 24.1173 21.5675C24.3628 22.0757 25.6539 25.6646 26.0295 26.6635C26.3118 27.3616 25.0525 27.845 24.7752 27.147H24.7653ZM29.7312 27.4627H27.031C26.3928 27.4627 26.5008 26.7227 26.5008 26.7227C26.5008 26.7227 26.5008 22.9538 26.5008 21.7895C26.5008 21.3776 26.8641 21.1729 27.2372 21.1729C27.6103 21.1729 27.9613 21.3776 27.9613 21.7871C27.9613 22.6331 27.9613 26.1184 27.9613 26.1184C27.9613 26.1184 29.1077 26.1184 29.7385 26.1184C30.3694 26.1184 30.3694 27.4627 29.741 27.4627H29.7312ZM34.0514 27.3567L32.289 24.9394L31.8839 25.265V27.0878C31.8839 27.6304 30.5118 27.6329 30.5118 27.0878C30.5118 26.7425 30.5412 22.1053 30.5265 21.5947C30.5265 21.311 30.88 21.1655 31.2334 21.1655C31.5869 21.1655 31.8864 21.2913 31.8937 21.5552C31.9109 22.2508 31.8937 23.5088 31.8937 23.5088C31.8937 23.5088 33.8845 21.5059 34.1692 21.2247C34.454 20.9435 35.3671 21.8487 35.075 22.1398C34.5718 22.6331 33.3003 24.0218 33.3003 24.0218L35.1757 26.4884C35.5414 26.9768 34.4196 27.8302 34.0612 27.3567H34.0514Z" fill="#371D1E"/>
<path d="M22.5269 25.0083H24.0782L23.3344 22.665L22.5269 25.0083Z" fill="#371D1E"/>
</g>
<defs>
<clipPath id="clip0_1501_1057">
<rect width="26" height="24" fill="white" transform="translate(13 14)"/>
</clipPath>
</defs>
</svg>
