<svg width="24" height="25" viewBox="0 0 24 25" fill="none" xmlns="http://www.w3.org/2000/svg"> <path d="M6 2.33325L3 6.33325V20.3333C3 20.8637 3.21071 21.3724 3.58579 21.7475C3.96086 22.1225 4.46957 22.3333 5 22.3333H19C19.5304 22.3333 20.0391 22.1225 20.4142 21.7475C20.7893 21.3724 21 20.8637 21 20.3333V6.33325L18 2.33325H6Z" stroke="#797979" stroke-width="1.5" stroke-linecap="round" stroke-linejoin="round"/> <path d="M3 6.33325H21" stroke="#797979" stroke-width="1.5" stroke-linecap="round" stroke-linejoin="round"/> <path d="M16 10.3333C16 11.3941 15.5786 12.4115 14.8284 13.1617C14.0783 13.9118 13.0609 14.3333 12 14.3333C10.9391 14.3333 9.92172 13.9118 9.17157 13.1617C8.42143 12.4115 8 11.3941 8 10.3333" stroke="#797979" stroke-width="1.5" stroke-linecap="round" stroke-linejoin="round"/> </svg>