<svg width="24" height="28" viewBox="0 0 24 28" fill="none" xmlns="http://www.w3.org/2000/svg">
<path d="M8.56387 12.7964L14.0821 6.30855C14.1727 6.20092 14.2805 6.11549 14.3993 6.0572C14.5181 5.9989 14.6456 5.96888 14.7743 5.96888C14.903 5.96888 15.0304 5.9989 15.1492 6.0572C15.268 6.11549 15.3759 6.20092 15.4665 6.30855C15.6481 6.52369 15.75 6.81473 15.75 7.11809C15.75 7.42145 15.6481 7.71248 15.4665 7.92763L10.6405 13.6691L15.4665 19.3531C15.6481 19.5682 15.75 19.8593 15.75 20.1626C15.75 20.466 15.6481 20.757 15.4665 20.9722C15.3762 21.0807 15.2685 21.167 15.1497 21.2261C15.0309 21.2852 14.9033 21.316 14.7743 21.3167C14.6453 21.316 14.5177 21.2852 14.3989 21.2261C14.28 21.167 14.1724 21.0807 14.0821 20.9722L8.56387 14.4843C8.46491 14.3768 8.38593 14.2463 8.33191 14.1011C8.27789 13.9558 8.25 13.7989 8.25 13.6404C8.25 13.4818 8.27789 13.3249 8.33191 13.1797C8.38593 13.0344 8.46491 12.9039 8.56387 12.7964Z" fill="#D4D4D8"/>
</svg>
