<svg width="24" height="29" viewBox="0 0 24 29" fill="none" xmlns="http://www.w3.org/2000/svg">
<path d="M15.4361 15.3465L9.91793 21.8343C9.8273 21.9419 9.71947 22.0273 9.60066 22.0856C9.48186 22.1439 9.35442 22.1739 9.22572 22.1739C9.09702 22.1739 8.96958 22.1439 8.85078 22.0856C8.73197 22.0273 8.62414 21.9419 8.53351 21.8343C8.35192 21.6191 8.25 21.3281 8.25 21.0247C8.25 20.7214 8.35192 20.4303 8.53351 20.2152L13.3595 14.4738L8.53351 8.78974C8.35192 8.5746 8.25 8.28356 8.25 7.9802C8.25 7.67684 8.35192 7.3858 8.53351 7.17066C8.6238 7.06216 8.73148 6.97584 8.8503 6.91671C8.96912 6.85757 9.09673 6.8268 9.22572 6.82617C9.35471 6.8268 9.48232 6.85757 9.60114 6.91671C9.71996 6.97584 9.82764 7.06216 9.91793 7.17066L15.4361 13.6585C15.5351 13.766 15.6141 13.8965 15.6681 14.0418C15.7221 14.187 15.75 14.3439 15.75 14.5025C15.75 14.661 15.7221 14.8179 15.6681 14.9632C15.6141 15.1084 15.5351 15.2389 15.4361 15.3465Z" fill="#D4D4D8"/>
</svg>
