<svg width="24" height="24" viewBox="0 0 24 24" fill="none" xmlns="http://www.w3.org/2000/svg">
<path d="M14.8042 9.34962C15.7987 10.1185 17.017 10.5709 18.3329 10.5709V7.83242C18.0838 7.83248 17.8355 7.80437 17.5918 7.74854V9.90411C16.2761 9.90411 15.0579 9.45177 14.0631 8.68295V14.2714C14.0631 17.0671 11.9676 19.3333 9.38286 19.3333C8.41842 19.3333 7.52198 19.0179 6.77734 18.4771C7.62725 19.417 8.81249 20 10.1237 20C12.7087 20 14.8043 17.7339 14.8043 14.9381V9.34962H14.8042ZM15.7184 6.58683C15.2101 5.9863 14.8764 5.21022 14.8042 4.3522V4H14.1019C14.2787 5.09049 14.8816 6.02214 15.7183 6.58683H15.7184ZM8.41219 16.3318C8.12823 15.9292 7.97473 15.4365 7.97542 14.93C7.97542 13.6514 8.93389 12.6147 10.1164 12.6147C10.3368 12.6146 10.5558 12.6512 10.7659 12.7232V9.92347C10.5204 9.88712 10.2727 9.87162 10.0251 9.87732V12.0565C9.81496 11.9844 9.5958 11.9478 9.37535 11.948C8.19288 11.948 7.23446 12.9847 7.23446 14.2634C7.23446 15.1677 7.71351 15.9505 8.41219 16.3318Z" fill="#FF004F"/>
<path d="M13.8298 8.61501C14.8488 9.37269 16.0966 9.81847 17.4444 9.81847V7.69414C16.6921 7.52738 16.0261 7.11833 15.5253 6.54933C14.6681 5.99277 14.0506 5.07463 13.8695 4H11.9799V14.7794C11.9756 16.036 10.9955 17.0536 9.78676 17.0536C9.07453 17.0536 8.44172 16.7003 8.041 16.153C7.32539 15.7772 6.83461 15.0057 6.83461 14.1147C6.83461 12.8546 7.81639 11.8329 9.02768 11.8329C9.25976 11.8329 9.48344 11.8705 9.69327 11.9397V9.79218C7.092 9.84811 5 12.0596 5 14.7794C5 16.1372 5.52094 17.368 6.36647 18.2674C7.12925 18.8002 8.04749 19.1111 9.03548 19.1111C11.6833 19.1111 13.8298 16.8776 13.8298 14.1225V8.61506H13.8298V8.61501Z" fill="black"/>
<path d="M17.4447 8.14642V7.59915C16.7595 7.60017 16.0879 7.41178 15.5066 7.05552C16.0212 7.60863 16.6987 7.99006 17.4447 8.14653V8.14642ZM13.8345 4.62605C13.8171 4.5282 13.8037 4.42969 13.7944 4.33077V4H11.1597V14.2724C11.1555 15.4699 10.1658 16.4395 8.94509 16.4395C8.59904 16.44 8.25772 16.3606 7.94871 16.2076C8.35337 16.729 8.9924 17.0656 9.71163 17.0656C10.9322 17.0656 11.9221 16.096 11.9264 14.8985V4.6261H13.8345V4.62605ZM9.61739 10.1458V9.56306C9.39723 9.5335 9.17528 9.51871 8.95308 9.5188C6.27898 9.5188 4.11133 11.6471 4.11133 14.2724C4.11133 15.9184 4.96324 17.369 6.25783 18.2222C5.40399 17.3652 4.87792 16.1922 4.87792 14.8984C4.87792 12.3066 6.99044 10.1991 9.61739 10.1458V10.1458Z" fill="#00F2EA"/>
</svg>
