<svg width="20" height="18" viewBox="0 0 20 18" fill="none" xmlns="http://www.w3.org/2000/svg">
<path d="M17.9712 2.45872C17.513 1.99626 16.9691 1.62941 16.3704 1.37912C15.7717 1.12883 15.1299 1 14.4819 1C13.8338 1 13.1921 1.12883 12.5934 1.37912C11.9947 1.62941 11.4507 1.99626 10.9926 2.45872L10.0418 3.41803L9.09094 2.45872C8.16551 1.52503 6.91037 1.00048 5.60162 1.00048C4.29288 1.00048 3.03774 1.52503 2.11231 2.45872C1.18689 3.39241 0.666992 4.65877 0.666992 5.97921C0.666992 7.29965 1.18689 8.56601 2.11231 9.4997L3.06313 10.459L10.0418 17.5L17.0204 10.459L17.9712 9.4997C18.4295 9.03746 18.7932 8.48864 19.0412 7.88458C19.2893 7.28052 19.417 6.63307 19.417 5.97921C19.417 5.32535 19.2893 4.6779 19.0412 4.07384C18.7932 3.46978 18.4295 2.92096 17.9712 2.45872V2.45872Z" stroke="#797979" stroke-linecap="round" stroke-linejoin="round"/>
</svg>
