<svg width="20" height="20" viewBox="0 0 20 20" fill="none" xmlns="http://www.w3.org/2000/svg">
<circle cx="10.0007" cy="10" r="6.16667" stroke="#25282B"/>
<path d="M10 6.66663L10 10.8333" stroke="#25282B" stroke-width="1.5" stroke-linecap="round" stroke-linejoin="round"/>
<mask id="path-3-inside-1_1686_22924" fill="white">
<ellipse cx="9.99935" cy="13.3333" rx="0.833333" ry="0.833333"/>
</mask>
<ellipse cx="9.99935" cy="13.3333" rx="0.833333" ry="0.833333" fill="#25282B"/>
<path d="M9.83268 13.3333C9.83268 13.2413 9.9073 13.1667 9.99935 13.1667V15.1667C11.0119 15.1667 11.8327 14.3459 11.8327 13.3333H9.83268ZM9.99935 13.1667C10.0914 13.1667 10.166 13.2413 10.166 13.3333H8.16602C8.16602 14.3459 8.98683 15.1667 9.99935 15.1667V13.1667ZM10.166 13.3333C10.166 13.4254 10.0914 13.5 9.99935 13.5V11.5C8.98683 11.5 8.16602 12.3208 8.16602 13.3333H10.166ZM9.99935 13.5C9.9073 13.5 9.83268 13.4254 9.83268 13.3333H11.8327C11.8327 12.3208 11.0119 11.5 9.99935 11.5V13.5Z" fill="#25282B" mask="url(#path-3-inside-1_1686_22924)"/>
</svg>
