<svg width="18" height="16" viewBox="0 0 18 16" fill="none" xmlns="http://www.w3.org/2000/svg">
<path d="M15.6428 2.5491C15.261 2.16372 14.8077 1.858 14.3088 1.64943C13.8099 1.44085 13.2751 1.3335 12.7351 1.3335C12.195 1.3335 11.6602 1.44085 11.1613 1.64943C10.6624 1.858 10.2091 2.16372 9.8273 2.5491L9.03496 3.34852L8.24261 2.5491C7.47142 1.77102 6.42547 1.3339 5.33485 1.3339C4.24423 1.3339 3.19828 1.77102 2.42709 2.5491C1.6559 3.32717 1.22266 4.38247 1.22266 5.48284C1.22266 6.58321 1.6559 7.63851 2.42709 8.41658L3.21944 9.21601L9.03496 15.0835L14.8505 9.21601L15.6428 8.41658C16.0248 8.03138 16.3278 7.57403 16.5345 7.07065C16.7412 6.56727 16.8477 6.02772 16.8477 5.48284C16.8477 4.93796 16.7412 4.39841 16.5345 3.89503C16.3278 3.39165 16.0248 2.9343 15.6428 2.5491V2.5491Z" stroke="#C4C4C4" stroke-linecap="round" stroke-linejoin="round"/>
</svg>
