<svg width="20" height="18" viewBox="0 0 20 18" fill="none" xmlns="http://www.w3.org/2000/svg">
<path d="M17.9702 2.45872C17.5121 1.99626 16.9681 1.62941 16.3694 1.37912C15.7707 1.12883 15.129 1 14.4809 1C13.8328 1 13.1911 1.12883 12.5924 1.37912C11.9937 1.62941 11.4497 1.99626 10.9916 2.45872L10.0408 3.41803L9.08996 2.45872C8.16454 1.52503 6.90939 1.00048 5.60065 1.00048C4.2919 1.00048 3.03676 1.52503 2.11134 2.45872C1.18591 3.39241 0.666016 4.65877 0.666016 5.97921C0.666016 7.29965 1.18591 8.56601 2.11134 9.4997L3.06215 10.459L10.0408 17.5L17.0194 10.459L17.9702 9.4997C18.4286 9.03746 18.7922 8.48864 19.0403 7.88458C19.2883 7.28052 19.416 6.63307 19.416 5.97921C19.416 5.32535 19.2883 4.6779 19.0403 4.07384C18.7922 3.46978 18.4286 2.92096 17.9702 2.45872V2.45872Z" stroke="white" stroke-linecap="round" stroke-linejoin="round"/>
</svg>
