<svg width="24" height="24" viewBox="0 0 24 24" fill="none" xmlns="http://www.w3.org/2000/svg">
<path d="M19.9572 6.92783C19.86 6.54976 19.6621 6.20336 19.3834 5.92361C19.1047 5.64386 18.7551 5.44068 18.37 5.33458C16.9628 5 11.334 5 11.334 5C11.334 5 5.70519 5 4.29799 5.36645C3.91285 5.47254 3.56328 5.67573 3.2846 5.95547C3.00591 6.23522 2.80798 6.58162 2.7108 6.95969C2.45326 8.35024 2.32728 9.76087 2.33445 11.1738C2.32527 12.5974 2.45126 14.0188 2.7108 15.4198C2.81794 15.7862 3.0203 16.1194 3.29834 16.3873C3.57637 16.6552 3.92068 16.8488 4.29799 16.9493C5.70519 17.3158 11.334 17.3158 11.334 17.3158C11.334 17.3158 16.9628 17.3158 18.37 16.9493C18.7551 16.8432 19.1047 16.6401 19.3834 16.3603C19.6621 16.0806 19.86 15.7342 19.9572 15.3561C20.2127 13.976 20.3387 12.5761 20.3335 11.1738C20.3427 9.75023 20.2167 8.32885 19.9572 6.92783Z" fill="#FF0000"/>
<path d="M9.91211 14.4737L14.649 11.6316L9.91211 8.78949V14.4737Z" fill="white"/>
</svg>
