<svg width="24" height="24" viewBox="0 0 24 24" fill="none" xmlns="http://www.w3.org/2000/svg">
<path fill-rule="evenodd" clip-rule="evenodd" d="M12 19C12.2273 19 12.4453 18.9078 12.606 18.7437C12.7667 18.5797 12.857 18.3571 12.857 18.1251V7.98848L16.5352 11.7453C16.6149 11.8267 16.7095 11.8912 16.8136 11.9352C16.9177 11.9792 17.0292 12.0019 17.1419 12.0019C17.2546 12.0019 17.3662 11.9792 17.4703 11.9352C17.5744 11.8912 17.669 11.8267 17.7487 11.7453C17.8284 11.664 17.8916 11.5674 17.9347 11.4611C17.9778 11.3548 18 11.2409 18 11.1259C18 11.0108 17.9778 10.8969 17.9347 10.7906C17.8916 10.6844 17.8284 10.5878 17.7487 10.5064L12.6067 5.25704C12.5271 5.17556 12.4326 5.11092 12.3285 5.06681C12.2243 5.0227 12.1127 5 12 5C11.8873 5 11.7757 5.0227 11.6715 5.06681C11.5674 5.11092 11.4729 5.17556 11.3933 5.25704L6.25132 10.5064C6.0904 10.6707 6 10.8935 6 11.1259C6 11.3582 6.0904 11.581 6.25132 11.7453C6.41224 11.9096 6.6305 12.0019 6.85807 12.0019C7.08565 12.0019 7.3039 11.9096 7.46482 11.7453L11.143 7.98848V18.1251C11.143 18.3571 11.2333 18.5797 11.394 18.7437C11.5547 18.9078 11.7727 19 12 19Z" fill="#797979"/>
</svg>
