<svg width="120" height="16" viewBox="0 0 120 16" fill="none" xmlns="http://www.w3.org/2000/svg">
<g clip-path="url(#clip0_1457_2332)">
<path d="M19.3193 2.78613H16.6729V15.7368H19.3193V2.78613Z" fill="#595959"/>
<path d="M35.1734 0.263184L31.4023 7.18243L32.6369 9.63785L37.9053 0.263184H35.1734Z" fill="#595959"/>
<path d="M48.9371 13.2139H41.7129V15.7305H48.9371V13.2139Z" fill="#595959"/>
<path d="M60.7706 13.2139H53.3936V15.7305H60.7706V13.2139Z" fill="#595959"/>
<path d="M60.7706 6.47217H53.3936V8.98882H60.7706V6.47217Z" fill="#595959"/>
<path d="M60.7706 0.263184H53.3936V2.77983H60.7706V0.263184Z" fill="#595959"/>
<path d="M65.4697 4.39664H68.269V5.68251C68.7108 5.1795 69.2546 4.77662 69.8641 4.50073C70.4666 4.23488 71.1189 4.10126 71.7772 4.10884C72.4423 4.10033 73.0964 4.27851 73.6657 4.6232C74.2474 4.98834 74.717 5.50754 75.0225 6.12339C75.4367 5.49563 75.9994 4.98026 76.6605 4.6232C77.314 4.27828 78.0428 4.10153 78.7813 4.10884C79.5167 4.09272 80.2415 4.28594 80.8716 4.66606C81.4455 4.99979 81.9007 5.50511 82.1734 6.11114C82.4864 7.0471 82.6192 8.03409 82.5646 9.01967V15.5777H79.747V9.90755C79.747 8.64004 79.5881 7.77666 79.2764 7.32966C79.116 7.10663 78.9018 6.92791 78.6539 6.81014C78.406 6.69237 78.1323 6.63938 77.8584 6.65611C77.3962 6.65376 76.945 6.7973 76.5688 7.06636C76.1817 7.35437 75.8883 7.75062 75.7254 8.20528C75.5056 8.96024 75.4126 9.74659 75.4504 10.5321V15.5777H72.6267V10.1647C72.6578 9.43332 72.5837 8.70123 72.4067 7.99097C72.2974 7.59351 72.064 7.24157 71.7405 6.98676C71.4323 6.7617 71.0583 6.64541 70.677 6.65611C70.2194 6.65301 69.7732 6.79916 69.4058 7.07249C69.0092 7.36687 68.711 7.77459 68.5501 8.24203C68.3255 9.00867 68.2305 9.80755 68.269 10.6056V15.5777H65.4697V4.39664Z" fill="#090909"/>
<path d="M93.0655 4.268H95.8648V15.4429H93.0655V14.2672C92.589 14.7365 92.0321 15.116 91.4214 15.3878C90.8536 15.6217 90.2445 15.7383 89.6307 15.7307C88.9239 15.734 88.2246 15.586 87.5795 15.2967C86.9344 15.0073 86.3585 14.5833 85.8902 14.0529C84.8351 12.9239 84.2683 11.4228 84.3134 9.87688C84.2511 8.31695 84.7994 6.79434 85.8413 5.63348C86.3054 5.10774 86.8768 4.68803 87.5169 4.40279C88.157 4.11755 88.8507 3.97344 89.5512 3.98021C90.1982 3.97402 90.8394 4.10333 91.4337 4.35985C92.0462 4.6272 92.6005 5.01203 93.0655 5.49265V4.268ZM90.1196 6.56421C89.7149 6.55435 89.3127 6.63182 88.9405 6.79135C88.5682 6.95088 88.2346 7.18874 87.9621 7.48882C87.4037 8.15167 87.0974 8.99111 87.0974 9.85851C87.0974 10.7259 87.4037 11.5653 87.9621 12.2282C88.2325 12.53 88.5646 12.7699 88.9359 12.9316C89.3071 13.0933 89.7088 13.1729 90.1135 13.1651C90.5223 13.1757 90.9287 13.0994 91.3059 12.941C91.6831 12.7827 92.0224 12.546 92.3015 12.2466C92.8977 11.5889 93.2097 10.7215 93.1694 9.83401C93.1882 9.40209 93.1212 8.97074 92.9722 8.56499C92.8232 8.15924 92.5953 7.78719 92.3015 7.47045C92.0212 7.17423 91.6825 6.93962 91.3069 6.78151C90.9313 6.62339 90.527 6.54523 90.1196 6.55197V6.56421Z" fill="#090909"/>
<path d="M101.212 0.275391H104.018V4.39632H107.636V6.80888H104.018V15.5773H101.212V6.80888H97.8203V4.39632H101.212V0.275391Z" fill="#090909"/>
<path d="M119.994 10.6546H110.998C111.097 11.3946 111.467 12.0712 112.037 12.5528C112.649 13.037 113.414 13.2867 114.194 13.2569C114.695 13.2639 115.193 13.1699 115.657 12.9805C116.121 12.7912 116.542 12.5104 116.896 12.1548L119.255 13.2631C118.717 14.0456 117.989 14.6779 117.14 15.1C116.226 15.5264 115.226 15.7359 114.219 15.7124C113.43 15.7439 112.644 15.613 111.908 15.3275C111.172 15.0421 110.502 14.6083 109.94 14.053C109.397 13.5101 108.971 12.8618 108.687 12.1479C108.404 11.434 108.268 10.6695 108.29 9.9014C108.265 9.11872 108.397 8.33897 108.68 7.60881C108.962 6.87865 109.389 6.21307 109.934 5.65189C110.467 5.09921 111.11 4.66359 111.82 4.37267C112.53 4.08174 113.293 3.94185 114.06 3.96187C114.851 3.9328 115.639 4.06793 116.375 4.35877C117.111 4.64961 117.78 5.08987 118.338 5.65189C118.897 6.24789 119.33 6.94992 119.614 7.71657C119.897 8.48323 120.025 9.29898 119.988 10.1157L119.994 10.6546ZM117.189 8.44408C117.009 7.82725 116.623 7.29115 116.095 6.92551C115.546 6.52181 114.881 6.307 114.2 6.31319C113.462 6.29932 112.739 6.53196 112.147 6.9745C111.688 7.36143 111.335 7.85863 111.12 8.41958L117.189 8.44408Z" fill="#090909"/>
<path d="M16.6795 2.77983H11.79V0.263184H24.2582V2.77983H16.6795Z" fill="#090909"/>
<path d="M39.0977 0.263184H41.7441V13.2138V15.7366H39.0977V0.263184Z" fill="#090909"/>
<path d="M53.3935 6.53949V9.06227V13.2138V15.7366H50.7471V0.263184H53.3935V2.77983V6.53949Z" fill="#090909"/>
<path d="M5.73907 -0.0185547C2.62814 -0.0185547 0.68457 2.16744 0.68457 4.35343C0.68457 7.23135 3.12931 8.26006 5.42125 9.05608C6.15392 9.30805 6.87214 9.60036 7.57262 9.93169C6.17301 8.70705 2.03529 5.73116 3.63659 3.49618C4.09783 2.98649 4.71872 2.64955 5.39681 2.54096H5.68407H5.7513C5.99647 2.54827 6.24021 2.5811 6.47861 2.63893C7.4298 2.95106 8.27604 3.52122 8.92335 4.28608L10.7569 2.44911C10.1497 1.69725 9.38621 1.087 8.51963 0.660835C7.65306 0.234669 6.70418 0.00282612 5.73907 -0.0185547Z" fill="#090909"/>
<path d="M27.6312 0.263184H24.7158L29.9903 9.63785V15.7366H32.6368V9.63785L31.4022 7.18243L27.6312 0.263184Z" fill="#090909"/>
<path d="M6.70448 6.93784C4.58367 6.14182 3.3674 5.71319 3.3674 4.3722C3.37188 4.05783 3.4721 3.75232 3.65466 3.49658C1.59497 5.63359 4.67534 8.60948 6.46611 9.42387C7.59069 9.9321 8.39135 10.6485 8.36079 11.6711C8.31801 12.9325 6.99174 13.4591 5.66546 13.4591C3.33074 13.4591 1.99836 11.1384 1.99836 11.1384L-0.0185547 12.8406C0.584165 13.7982 1.41687 14.5891 2.40342 15.1411C3.38997 15.693 4.4989 15.9884 5.62879 16.0002C8.54415 16.0002 11.0133 14.4939 11.0133 11.714C11.0133 8.93401 9.06976 7.81958 6.70448 6.93784Z" fill="#595959"/>
</g>
<defs>
<clipPath id="clip0_1457_2332">
<rect width="120" height="16" fill="white"/>
</clipPath>
</defs>
</svg>
